<svg width="24" height="24" viewBox="0 0 24 24" fill="none" xmlns="http://www.w3.org/2000/svg">
<path d="M22.5935 11.9929H19.9912C19.2139 11.9929 18.5842 12.6227 18.5842 13.3999V17.1771C18.5842 17.9543 17.9544 18.5841 17.1771 18.5841H6.82402C6.04678 18.5841 5.41699 19.2139 5.41699 19.9912V22.5935C5.41699 23.3708 6.04678 24.0006 6.82402 24.0006H17.7764C18.5536 24.0006 19.1745 23.3708 19.1745 22.5935V20.5056C19.1745 19.7284 19.8042 19.1771 20.5815 19.1771H22.593C23.3703 19.1771 24 18.5473 24 17.77V13.3836C24 12.6064 23.3703 11.9929 22.593 11.9929H22.5935Z" fill="#121312"/>
<path d="M5.41641 6.82295C5.41641 6.04572 6.04621 5.41593 6.82344 5.41593H17.1702C17.9475 5.41593 18.5773 4.78613 18.5773 4.0089V1.40654C18.5773 0.629303 17.9475 -0.000488281 17.1702 -0.000488281H6.22366C5.44643 -0.000488281 4.81664 0.629303 4.81664 1.40654V3.41176C4.81664 4.18899 4.18685 4.81878 3.40961 4.81878H1.40703C0.629791 4.81878 0 5.44857 0 6.22581V10.617C0 11.3942 0.632424 11.9924 1.40966 11.9924H4.01202C4.78926 11.9924 5.41905 11.3626 5.41905 10.5854L5.41641 6.82348V6.82295Z" fill="#121312"/>
<path d="M10.7755 9.25732H13.2752C14.0898 9.25732 14.7507 9.91871 14.7507 10.7328V13.2325C14.7507 14.0471 14.0893 14.708 13.2752 14.708H10.7755C9.96091 14.708 9.30005 14.0466 9.30005 13.2325V10.7328C9.30005 9.91818 9.96143 9.25732 10.7755 9.25732V9.25732Z" fill="#121312"/>
</svg>
