<svg width="40" height="40" viewBox="0 0 40 40" fill="none" xmlns="http://www.w3.org/2000/svg">
<path d="M37.6559 19.9882H33.3186C32.0232 19.9882 30.9736 21.0378 30.9736 22.3331V28.6281C30.9736 29.9234 29.9239 30.973 28.6286 30.973H11.3734C10.078 30.973 9.02832 32.0226 9.02832 33.318V37.6551C9.02832 38.9504 10.078 40 11.3734 40H29.6273C30.9227 40 31.9574 38.9504 31.9574 37.6551V34.1754C31.9574 32.8801 33.0071 31.9612 34.3025 31.9612H37.655C38.9504 31.9612 40.0001 30.9116 40.0001 29.6163V22.3059C40.0001 21.0106 38.9504 19.9882 37.655 19.9882H37.6559Z" fill="#121312"/>
<path d="M9.02736 11.3719C9.02736 10.0766 10.077 9.02697 11.3724 9.02697H28.6171C29.9124 9.02697 30.9621 7.97736 30.9621 6.68202V2.34494C30.9621 1.04961 29.9124 0 28.6171 0H10.3728C9.07738 0 8.02773 1.04961 8.02773 2.34494V5.68683C8.02773 6.98216 6.97808 8.03177 5.68269 8.03177H2.34504C1.04965 8.03177 0 9.08138 0 10.3767V17.695C0 18.9903 1.05404 19.9873 2.34943 19.9873H6.6867C7.98209 19.9873 9.03175 18.9377 9.03175 17.6423L9.02736 11.3728V11.3719Z" fill="#121312"/>
<path d="M17.9591 15.429H22.1253C23.483 15.429 24.5844 16.5313 24.5844 17.8881V22.054C24.5844 23.4117 23.4821 24.513 22.1253 24.513H17.9591C16.6014 24.513 15.5 23.4108 15.5 22.054V17.8881C15.5 16.5304 16.6023 15.429 17.9591 15.429Z" fill="#121312"/>
</svg>
