<svg width="128" height="129" viewBox="0 0 128 129" fill="none" xmlns="http://www.w3.org/2000/svg">
<path d="M120.499 63.9648H106.619C102.474 63.9648 99.1153 67.3237 99.1153 71.469V91.6139C99.1153 95.7591 95.7564 99.118 91.6111 99.118H36.3945C32.2493 99.118 28.8904 102.477 28.8904 106.622V120.501C28.8904 124.647 32.2493 128.006 36.3945 128.006H94.8071C98.9524 128.006 102.264 124.647 102.264 120.501V109.366C102.264 105.221 105.622 102.28 109.768 102.28H120.496C124.641 102.28 128 98.9214 128 94.7762V71.3819C128 67.2367 124.641 63.9648 120.496 63.9648H120.499Z" fill="white"/>
<path d="M28.8875 36.3917C28.8875 32.2464 32.2464 28.8875 36.3917 28.8875H91.5746C95.7198 28.8875 99.0787 25.5287 99.0787 21.3834V7.50413C99.0787 3.35889 95.7198 0 91.5746 0H33.1929C29.0476 0 25.6887 3.35889 25.6887 7.50413V18.1986C25.6887 22.3439 22.3299 25.7028 18.1846 25.7028H7.50413C3.35889 25.7028 0 29.0617 0 33.2069V56.6264C0 60.7717 3.37293 63.9621 7.51818 63.9621H21.3975C25.5427 63.9621 28.9016 60.6032 28.9016 56.4579L28.8875 36.3945V36.3917Z" fill="white"/>
<path d="M57.4689 49.3751H70.8006C75.1452 49.3751 78.6698 52.9025 78.6698 57.2443V70.576C78.6698 74.9206 75.1424 78.4452 70.8006 78.4452H57.4689C53.1243 78.4452 49.5997 74.9178 49.5997 70.576V57.2443C49.5997 52.8997 53.1271 49.3751 57.4689 49.3751Z" fill="white"/>
</svg>
