<svg width="20" height="16" viewBox="0 0 20 16" fill="none" xmlns="http://www.w3.org/2000/svg">
<path d="M16.667 5.91666V4C16.667 3.06658 16.667 2.59987 16.4853 2.24335C16.3255 1.92974 16.0706 1.67477 15.757 1.51499C15.4005 1.33333 14.9337 1.33333 14.0003 1.33333H4.33366C3.40024 1.33333 2.93353 1.33333 2.57701 1.51498C2.2634 1.67477 2.00844 1.92974 1.84865 2.24334C1.66699 2.59986 1.66699 3.06657 1.66699 4V12C1.66699 12.9334 1.66699 13.4001 1.84865 13.7566C2.00844 14.0702 2.2634 14.3252 2.57701 14.485C2.93353 14.6667 3.40024 14.6667 4.33366 14.6667L14.0003 14.6667C14.9337 14.6667 15.4005 14.6667 15.757 14.485C16.0706 14.3252 16.3255 14.0702 16.4853 13.7566C16.667 13.4001 16.667 12.9334 16.667 12V10.0833M12.5003 7.99999C12.5003 7.61278 12.5003 7.41918 12.5324 7.25818C12.6639 6.59703 13.1807 6.0802 13.8418 5.94869C14.0028 5.91666 14.1964 5.91666 14.5837 5.91666H16.2503C16.6375 5.91666 16.8311 5.91666 16.9921 5.94869C17.6533 6.0802 18.1701 6.59703 18.3016 7.25818C18.3337 7.41918 18.3337 7.61278 18.3337 7.99999C18.3337 8.38721 18.3337 8.58081 18.3016 8.74181C18.1701 9.40296 17.6533 9.91979 16.9921 10.0513C16.8311 10.0833 16.6375 10.0833 16.2503 10.0833H14.5837C14.1964 10.0833 14.0028 10.0833 13.8418 10.0513C13.1807 9.91979 12.6639 9.40296 12.5324 8.74181C12.5003 8.58081 12.5003 8.38721 12.5003 7.99999Z" stroke="#00CF9D" stroke-width="2" stroke-linecap="round" stroke-linejoin="round"/>
</svg>
