<svg width="24" height="24" viewBox="0 0 24 24" fill="none" xmlns="http://www.w3.org/2000/svg">
<g clip-path="url(#clip0_75_6400)">
<path d="M12 23.9999C18.6274 23.9999 24 18.6273 24 11.9999C24 5.37251 18.6274 -6.10352e-05 12 -6.10352e-05C5.37258 -6.10352e-05 0 5.37251 0 11.9999C0 18.6273 5.37258 23.9999 12 23.9999Z" fill="#FF0420"/>
<path d="M8.50098 15.1871C7.78578 15.1871 7.20018 15.0191 6.74418 14.6831C6.29298 14.3423 6.06738 13.8527 6.06738 13.2239C6.06738 13.0895 6.08178 12.9311 6.11058 12.7391C6.18738 12.3071 6.29778 11.7887 6.44178 11.1791C6.84978 9.52793 7.90578 8.70233 9.60498 8.70233C10.0658 8.70233 10.4834 8.77913 10.8482 8.93753C11.213 9.08633 11.501 9.31673 11.7122 9.62393C11.9234 9.92633 12.029 10.2863 12.029 10.7039C12.029 10.8287 12.0146 10.9871 11.9858 11.1791C11.8946 11.7119 11.789 12.2351 11.6594 12.7391C11.4482 13.5599 11.0882 14.1791 10.5698 14.5871C10.0562 14.9903 9.36498 15.1871 8.50098 15.1871ZM8.63058 13.8911C8.96658 13.8911 9.24978 13.7903 9.48498 13.5935C9.72498 13.3967 9.89778 13.0943 9.99858 12.6815C10.1378 12.1151 10.2434 11.6255 10.3154 11.2031C10.3394 11.0783 10.3538 10.9487 10.3538 10.8143C10.3538 10.2671 10.0706 9.99353 9.49938 9.99353C9.16338 9.99353 8.87538 10.0943 8.63538 10.2911C8.40018 10.4879 8.23218 10.7903 8.13138 11.2031C8.02098 11.6063 7.91538 12.0959 7.80498 12.6815C7.78098 12.8015 7.76658 12.9263 7.76658 13.0607C7.76178 13.6175 8.05458 13.8911 8.63058 13.8911Z" fill="white"/>
<path d="M12.4467 15.1007C12.3795 15.1007 12.3315 15.0815 12.2931 15.0383C12.2643 14.9903 12.2547 14.9375 12.2643 14.8751L13.5075 9.01912C13.5171 8.95192 13.5507 8.89912 13.6083 8.85592C13.6611 8.81272 13.7187 8.79352 13.7811 8.79352H16.1763C16.8435 8.79352 17.3763 8.93272 17.7795 9.20632C18.1875 9.48472 18.3939 9.88312 18.3939 10.4063C18.3939 10.5551 18.3747 10.7135 18.3411 10.8767C18.1923 11.5679 17.8899 12.0767 17.4291 12.4079C16.9779 12.7391 16.3587 12.9023 15.5715 12.9023H14.3571L13.9443 14.8751C13.9299 14.9423 13.9011 14.9951 13.8435 15.0383C13.7907 15.0815 13.7331 15.1007 13.6707 15.1007H12.4467ZM15.6339 11.6591C15.8883 11.6591 16.1043 11.5919 16.2915 11.4527C16.4835 11.3135 16.6083 11.1167 16.6707 10.8575C16.6899 10.7567 16.6995 10.6655 16.6995 10.5887C16.6995 10.4159 16.6467 10.2815 16.5459 10.1903C16.4451 10.0943 16.2675 10.0463 16.0227 10.0463H14.9427L14.6019 11.6591H15.6339Z" fill="white"/>
</g>
<defs>
<clipPath id="clip0_75_6400">
<rect width="24" height="24" fill="white"/>
</clipPath>
</defs>
</svg>
