<svg width="10" height="10" viewBox="0 0 10 10" fill="none" xmlns="http://www.w3.org/2000/svg">
<path d="M5.8878 0.675424V2.51122C5.8878 2.76013 5.8878 2.88459 5.93625 2.97966C5.97886 3.06329 6.04685 3.13128 6.13047 3.17389C6.22555 3.22233 6.35 3.22233 6.59891 3.22233H8.43471M8.55447 4.10599V7.31122C8.55447 8.05795 8.55447 8.43132 8.40915 8.71654C8.28131 8.96742 8.07734 9.1714 7.82646 9.29923C7.54124 9.44455 7.16787 9.44455 6.42114 9.44455H3.57669C2.82996 9.44455 2.45659 9.44455 2.17137 9.29923C1.92049 9.1714 1.71652 8.96742 1.58868 8.71654C1.44336 8.43132 1.44336 8.05795 1.44336 7.31122V2.689C1.44336 1.94226 1.44336 1.56889 1.58868 1.28368C1.71652 1.03279 1.92049 0.82882 2.17137 0.700989C2.45659 0.555664 2.82996 0.555664 3.57669 0.555664H5.00415C5.33027 0.555664 5.49333 0.555664 5.64678 0.592504C5.78283 0.625166 5.91289 0.679039 6.03218 0.752144C6.16674 0.834599 6.28204 0.949901 6.51264 1.1805L7.92963 2.59749C8.16023 2.82809 8.27553 2.94339 8.35799 3.07795C8.4311 3.19725 8.48497 3.32731 8.51763 3.46335C8.55447 3.6168 8.55447 3.77986 8.55447 4.10599Z" stroke="#475467" stroke-linecap="round" stroke-linejoin="round"/>
</svg>
