<svg width="18" height="16" viewBox="0 0 18 16" fill="none" xmlns="http://www.w3.org/2000/svg">
<path d="M4.71193 5.25753C5.01818 5.08273 5.41193 5.08273 5.76193 5.25753L8.21193 6.69968L9.87442 7.61741L12.2807 9.05956C12.5869 9.23436 12.9807 9.23436 13.3307 9.05956L15.2119 7.92332C15.5182 7.74852 15.7369 7.3989 15.7369 7.00559V4.82052C15.7369 4.47091 15.5619 4.1213 15.2119 3.90279L13.3307 2.81025C13.0244 2.63545 12.6307 2.63545 12.2807 2.81025L10.3994 3.94649C10.0932 4.1213 9.87442 4.47091 9.87442 4.86422V6.30637L8.21193 5.34494V3.85909C8.21193 3.50948 8.38693 3.15987 8.73693 2.94136L12.2369 0.887391C12.5432 0.712585 12.9369 0.712585 13.2869 0.887391L16.8744 2.98506C17.2244 3.15987 17.3994 3.50948 17.3994 3.85909V7.96702C17.3994 8.31663 17.2244 8.66625 16.8744 8.88475L13.3307 10.9387C13.0244 11.1135 12.6307 11.1135 12.2807 10.9387L9.87442 9.54027L8.21193 8.57884L5.80568 7.1804C5.49943 7.00559 5.10568 7.00559 4.75568 7.1804L2.87443 8.27293C2.56818 8.44774 2.34943 8.79735 2.34943 9.19066V11.3757C2.34943 11.7253 2.52443 12.075 2.87443 12.2935L4.71193 13.386C5.01818 13.5608 5.41193 13.5608 5.76193 13.386L7.64318 12.2935C7.94943 12.1187 8.16818 11.769 8.16818 11.3757V9.97729L9.83067 10.9387V12.3809C9.83067 12.7305 9.65567 13.0801 9.30567 13.2986L5.76193 15.3526C5.45568 15.5274 5.06193 15.5274 4.71193 15.3526L1.16819 13.2986C0.861937 13.1238 0.643187 12.7742 0.643187 12.3809V8.22923C0.643187 7.87962 0.818186 7.53001 1.16819 7.3115L4.71193 5.25753Z" fill="#8247E5"/>
</svg>
