<svg width="56" height="56" viewBox="0 0 56 56" fill="none" xmlns="http://www.w3.org/2000/svg">
<rect x="4" y="4" width="48" height="48" rx="24" fill="#BBEED9"/>
<path d="M36 25.5V23.2C36 22.0799 36 21.5198 35.782 21.092C35.5903 20.7157 35.2843 20.4097 34.908 20.218C34.4802 20 33.9201 20 32.8 20H21.2C20.0799 20 19.5198 20 19.092 20.218C18.7157 20.4097 18.4097 20.7157 18.218 21.092C18 21.5198 18 22.0799 18 23.2V32.8C18 33.9201 18 34.4802 18.218 34.908C18.4097 35.2843 18.7157 35.5903 19.092 35.782C19.5198 36 20.0799 36 21.2 36L32.8 36C33.9201 36 34.4802 36 34.908 35.782C35.2843 35.5903 35.5903 35.2843 35.782 34.908C36 34.4802 36 33.9201 36 32.8V30.5M31 28C31 27.5353 31 27.303 31.0384 27.1098C31.1962 26.3164 31.8164 25.6962 32.6098 25.5384C32.803 25.5 33.0353 25.5 33.5 25.5H35.5C35.9647 25.5 36.197 25.5 36.3902 25.5384C37.1836 25.6962 37.8038 26.3164 37.9616 27.1098C38 27.303 38 27.5353 38 28C38 28.4647 38 28.697 37.9616 28.8902C37.8038 29.6836 37.1836 30.3038 36.3902 30.4616C36.197 30.5 35.9647 30.5 35.5 30.5H33.5C33.0353 30.5 32.803 30.5 32.6098 30.4616C31.8164 30.3038 31.1962 29.6836 31.0384 28.8902C31 28.697 31 28.4647 31 28Z" stroke="#00CF9D" stroke-width="2" stroke-linecap="round" stroke-linejoin="round"/>
<rect x="4" y="4" width="48" height="48" rx="24" stroke="#D2F4E6" stroke-width="8"/>
</svg>
